<svg width="40" height="40" viewBox="0 0 40 40" fill="none" xmlns="http://www.w3.org/2000/svg">
<circle cx="20" cy="20" r="20" fill="#1a1a2e"/>
<path d="M25.0871 22.0511C23.9547 23.7247 23.2517 25.6344 23.5295 27.5231C23.5691 27.7847 23.4362 28.0392 23.1983 28.1562C22.9578 28.2684 22.6723 28.2128 22.4878 28.0211C21.1523 26.6187 19.2357 25.9686 17.2372 25.819C18.5493 25.4894 20.0178 24.9748 21.4933 24.2548C22.8685 23.5816 24.0856 22.8153 25.0895 22.0486L25.0871 22.0511ZM15.2832 11.881C15.5003 11.7759 15.7597 11.8485 15.8928 12.0494C19.1871 17.0422 22.7034 18.4217 27.2445 17.5849C27.5806 17.522 27.919 17.6922 28.0754 17.9983C28.4216 18.6916 27.7105 19.1179 27.2722 19.525C26.0347 20.5231 23.7301 21.9679 20.9611 23.319C18.1899 24.67 15.6309 25.5973 14.0853 25.9573C13.7503 26.0098 13.4121 26.114 13.0721 26.1258C12.3977 26.0808 12.0726 25.1932 12.5863 24.735C16.0301 21.6798 16.9357 18.1408 15.0399 12.4653C14.963 12.2363 15.0662 11.9861 15.2832 11.881Z" fill="#F5FBFF"/>
</svg>
